<?xml version="1.0" standalone="no"?>
<!DOCTYPE svg PUBLIC "-//W3C//DTD SVG 20010904//EN"
 "http://www.w3.org/TR/2001/REC-SVG-20010904/DTD/svg10.dtd">
<svg version="1.0" xmlns="http://www.w3.org/2000/svg"
 width="512.000000pt" height="512.000000pt" viewBox="0 0 512.000000 512.000000"
 preserveAspectRatio="xMidYMid meet">

<g transform="translate(0.000000,512.000000) scale(0.100000,-0.100000)"
fill="#000000" stroke="none">
<path d="M2732 4515 c-114 -26 -208 -79 -298 -169 -92 -92 -135 -170 -161
-289 -14 -69 -13 -185 3 -260 l6 -27 -378 2 -378 3 -52 195 c-86 319 -82 309
-139 365 -63 64 -100 75 -249 75 -110 0 -119 1 -158 28 l-42 27 -350 3 c-240
2 -363 0 -389 -8 -51 -15 -119 -84 -135 -136 -15 -52 -16 -145 0 -195 16 -54
70 -114 121 -134 36 -14 89 -15 398 -13 l355 3 42 28 c31 20 54 27 91 27 l50
0 15 -52 c16 -56 680 -2534 691 -2579 5 -21 -1 -38 -29 -76 -138 -192 -120
-441 44 -604 188 -189 479 -185 663 10 34 36 71 85 81 109 l19 42 801 0 801 0
29 -55 c35 -68 137 -164 208 -198 285 -133 612 41 661 352 38 246 -138 480
-390 523 -170 28 -353 -52 -455 -199 l-29 -43 -824 0 -824 0 -29 43 c-71 102
-188 177 -310 198 -61 11 -62 11 -72 53 -6 22 -18 64 -26 93 -7 28 -14 54 -14
57 0 3 525 7 1168 8 l1167 3 41 22 c47 25 104 85 122 128 21 52 542 1797 542
1816 0 10 -11 31 -24 46 l-24 28 -422 3 -421 3 8 62 c11 87 6 202 -13 267 -51
179 -191 323 -384 395 -66 25 -89 29 -195 29 -142 1 -220 -19 -328 -84 -61
-37 -70 -40 -85 -27 -106 91 -339 139 -500 102z m301 -175 c31 -12 90 -46 130
-76 85 -65 102 -66 175 -5 194 161 464 144 637 -40 141 -150 146 -350 15 -609
-128 -256 -391 -547 -667 -740 -74 -52 -65 -54 -213 55 -342 254 -643 672
-682 944 -32 227 99 423 323 486 75 21 206 14 282 -15z m-2179 -52 c20 -29 20
-97 0 -126 -15 -22 -16 -22 -336 -22 -370 0 -358 -3 -358 83 0 91 -15 87 356
87 322 0 323 0 338 -22z m365 -57 c25 -19 31 -43 296 -1031 47 -179 115 -431
150 -560 172 -633 306 -1142 303 -1145 -2 -1 -12 -5 -24 -9 -17 -5 -22 0 -32
31 -6 21 -167 623 -358 1337 -194 722 -356 1308 -365 1320 -13 16 -31 21 -88
24 -67 4 -71 6 -71 28 0 23 2 24 83 24 64 0 87 -4 106 -19z m1101 -628 c0 -5
7 -87 15 -183 8 -96 15 -194 15 -217 l0 -43 -330 0 -330 0 -6 28 c-4 15 -31
113 -59 217 -29 105 -50 193 -48 198 2 4 170 7 374 7 203 0 369 -3 369 -7z
m2604 -2 c3 -4 -15 -75 -40 -157 -24 -82 -54 -179 -65 -216 l-20 -68 -325 0
-326 0 6 28 c3 15 10 108 17 207 7 99 16 188 21 198 8 16 34 17 368 17 198 -1
362 -4 364 -9z m-2397 -310 c6 -10 32 -44 58 -75 l46 -57 -58 3 -58 3 -5 73
c-3 39 -3 72 0 72 3 0 10 -8 17 -19z m1468 -88 l-6 -43 -55 0 -55 0 58 75 58
75 3 -32 c2 -18 1 -52 -3 -75z m-1625 -230 c1 -16 9 -129 19 -253 10 -124 16
-228 14 -232 -2 -5 -121 -8 -264 -8 l-259 0 -10 23 c-12 27 -130 469 -130 485
0 9 80 12 315 12 l315 0 0 -27z m453 -14 c56 -55 227 -192 293 -236 l54 -36 0
-103 0 -104 -299 0 -300 0 -5 53 c-8 67 -36 423 -36 448 0 18 9 19 125 19
l126 0 42 -41z m1157 39 c0 -2 -9 -113 -20 -248 -11 -135 -20 -251 -20 -258 0
-10 -64 -12 -302 -10 l-303 3 -2 100 -3 100 83 55 c85 57 230 175 281 229 l30
31 128 0 c70 0 128 -1 128 -2z m766 -15 c-3 -10 -37 -123 -76 -252 -39 -128
-73 -237 -76 -242 -6 -11 -494 -12 -494 -1 0 4 9 120 20 257 11 138 20 251 20
253 0 1 138 2 306 2 286 0 305 -1 300 -17z m-1576 -884 l0 -219 -278 0 -278 0
-12 178 c-7 97 -15 196 -18 219 l-6 43 288 2 c159 2 292 2 297 0 4 -2 7 -102
7 -223z m1376 221 c1 0 -25 -87 -57 -192 -50 -165 -62 -197 -89 -220 l-30 -28
-161 0 c-148 0 -160 1 -155 18 2 9 10 100 17 202 6 102 15 194 19 205 7 19 16
20 231 18 123 -2 225 -3 225 -3z m-2126 -7 c0 -5 7 -87 15 -183 8 -96 15 -192
15 -212 l0 -38 -208 0 -207 0 -53 198 c-29 108 -55 207 -59 220 l-5 22 251 0
c138 0 251 -3 251 -7z m1505 -20 c-2 -16 -9 -100 -15 -188 -6 -88 -13 -175
-16 -192 l-5 -33 -279 0 -280 0 0 220 0 220 300 0 300 0 -5 -27z m-1676 -965
c224 -108 226 -435 3 -545 -48 -24 -69 -28 -137 -28 -67 0 -88 5 -130 27 -186
98 -228 335 -87 481 91 94 235 121 351 65z m2467 3 c64 -29 127 -91 156 -155
33 -74 31 -183 -4 -251 -31 -60 -86 -114 -148 -146 -68 -36 -185 -34 -262 4
-61 30 -105 74 -140 140 -19 35 -23 58 -23 132 0 81 3 95 30 144 77 139 245
196 391 132z m-586 -251 l0 -30 -775 0 -775 0 0 30 0 30 775 0 775 0 0 -30z"/>
<path d="M2025 1251 c-210 -97 -139 -411 93 -411 87 0 167 52 199 129 17 39
19 124 4 162 -15 42 -72 100 -116 120 -51 24 -129 24 -180 0z m135 -156 c7 -8
13 -26 13 -40 0 -34 -20 -55 -54 -55 -52 0 -77 53 -42 92 20 22 66 24 83 3z"/>
<path d="M4504 1251 c-162 -73 -170 -300 -15 -385 146 -79 321 24 321 189 0
157 -163 261 -306 196z m128 -158 c38 -34 12 -93 -41 -93 -34 0 -53 21 -53 57
0 47 57 70 94 36z"/>
</g>
</svg>
